<svg xmlns="http://www.w3.org/2000/svg" viewBox="0 0 100 93.1"><defs><pattern id="a" width="6" height="6" x="0" y="0" patternTransform="matrix(1 0 0 -1 51.7 -15905.1)" patternUnits="userSpaceOnUse" viewBox="0 0 6 6"><path fill="none" d="M0 0h6v6H0z"/><path fill="#fff" d="M0 0h6v6H0z"/><path stroke="#666" stroke-linecap="square" stroke-width="1.5" d="m-1 7 8-8M5 7l2-2m-8-4 2-2" opacity=".3"/></pattern></defs><path fill="#fff" stroke="#231f20" stroke-miterlimit="10" stroke-width=".2" d="M23.3 78v3.2M38.1 78v3.2M8.4 78v3.2M53 78v3.2M67.5 78v3.2M82.6 78v3.2"/><path fill="url(#a)" stroke="#666" stroke-width="1.4" d="M2.7 78.5V70h13.2l7.4-19.4L30.7 70l7.4-29.7L45.5 70 53 31.9 60.3 70l7.2-44.4L75.1 70l7.5-67.1L90 70h7.3v8.5z"/><text  font-size="8" transform="translate(6.1 90.2)"><tspan x="0" y="0">1</tspan><tspan x="13.4" y="0">2</tspan><tspan x="28.2" y="0">3</tspan><tspan x="43" y="0">4</tspan><tspan x="58.7" y="0">5</tspan><tspan x="72.5" y="0">11</tspan></text></svg>