<svg xmlns="http://www.w3.org/2000/svg" viewBox="0 0 54.1 93.1"><text font-size="8" transform="rotate(-90 46.05 32.45)"> <tspan x="-7" y="0">2023</tspan></text><rect width="10.2" height="9.5" x="6.2" y="35" fill="#ddd" rx="1.8" ry="1.8"/><rect width="10.2" height="9.5" x="6.2" y="49.6" fill="#555" rx="1.8" ry="1.8"/><rect width="10.2" height="9.5" x="6.2" y="20.3" fill="#ddd" rx="1.8" ry="1.8"/><text font-size="8" transform="rotate(-90 53.95 24.55)"> <tspan x="-7" y="0">2024</tspan></text><rect width="10.2" height="9.5" x="21.9" y="35" fill="#555" rx="1.8" ry="1.8"/><rect width="10.2" height="9.5" x="21.9" y="49.6" fill="#ddd" rx="1.8" ry="1.8"/><rect width="10.2" height="9.5" x="21.9" y="20.3" fill="#ddd" rx="1.8" ry="1.8"/><text font-size="8" transform="rotate(-90 61.8 16.7)"> <tspan x="-7" y="0">2025</tspan></text><rect width="10.2" height="9.5" x="37.7" y="35" fill="#ddd" rx="1.8" ry="1.8"/><rect width="10.2" height="9.5" x="37.7" y="49.6" fill="#ddd" rx="1.8" ry="1.8"/><rect width="10.2" height="9.5" x="37.7" y="20.3" fill="#555" rx="1.8" ry="1.8"/></svg>