<svg xmlns="http://www.w3.org/2000/svg" width="24" height="24" viewBox="0 0 24 24"><g fill="#fff"><path d="M19.496 13.983l1.966 3.406a1.001 1.001 0 0 1 -.705 1.488l-.113 .011l-.112 -.001l-2.933 -.19l-1.303 2.636a1.001 1.001 0 0 1 -1.608 .26l-.082 -.094l-.072 -.11l-1.968 -3.407a8.994 8.994 0 0 0 6.93 -3.999z" /><path d="M11.43 17.982l-1.966 3.408a1.001 1.001 0 0 1 -1.622 .157l-.076 -.1l-.064 -.114l-1.304 -2.635l-2.931 .19a1.001 1.001 0 0 1 -1.022 -1.29l.04 -.107l.05 -.1l1.968 -3.409a8.994 8.994 0 0 0 6.927 4.001z" /><circle cx="12" cy="9" r="7"></circle></g></svg>