<svg xmlns="http://www.w3.org/2000/svg" viewBox="0 0 524.41 170.08"><g fill="#163963"><rect width="7.39" height="15.06" x="58.91" y="2.27" rx=".7" ry=".7"/><rect width="11.32" height="7.39" x="70.18" y="9.38" rx=".7" ry=".7" transform="rotate(-76.88 75.83 13.078)"/><rect width="7.39" height="7.39" x="83.49" y="15.61" rx=".7" ry=".7" transform="rotate(-64.3 87.182 19.304)"/><rect width="7.39" height="11.32" x="45.73" y="7.42" rx=".7" ry=".7" transform="rotate(-13.13 49.427 13.084)"/><rect width="7.39" height="7.39" x="34.38" y="15.61" rx=".7" ry=".7" transform="rotate(-25.69 38.086 19.319)"/><path d="M62.61 47.28c-17.06 0-30.43 21.53-30.43 49s13.36 49.01 30.43 49.01 30.42-21.53 30.42-49.01-13.36-49-30.42-49m0 7.39c10.71 0 20.01 14.05 22.42 32.3L49.55 63.48a.706.706 0 0 1-.17-1.02c3.77-4.88 8.35-7.79 13.23-7.79M45.86 69.9l34.47 22.82H40.42a.71.71 0 0 1-.71-.75c.49-8.13 2.34-15.65 5.12-21.78.18-.39.67-.53 1.03-.29m16.75 68.01c-11.64 0-21.59-16.55-22.89-37.05-.03-.41.3-.75.71-.75h44.35c.41 0 .73.35.71.75-1.3 20.5-11.25 37.05-22.88 37.05M108.85 82.41C102.32 82.41 97 77.1 97 70.56c0-.56 0-1.33.19-2.11l4.48-20.35s.11-.46.11-1a4.464 4.464 0 0 0-5.85-4.24.68.68 0 0 1-.83-.35l-2.64-5.43c-.18-.36 0-.79.37-.95 1.42-.58 2.93-.88 4.49-.88 6.53 0 11.85 5.31 11.85 11.85 0 1.35-.24 2.45-.34 2.85l-4.43 20.16v.16c-.04 2.58 2.03 4.82 4.6 4.74.38-.01.74-.07 1.1-.17.34-.1.69.07.83.39l2.45 5.49c.17.38-.03.81-.42.96-1.31.49-2.7.73-4.12.73ZM16.64 82.43c-1.44 0-2.84-.25-4.17-.76a.68.68 0 0 1-.37-.92l2.46-5.51c.14-.32.49-.48.83-.38.36.1.72.16 1.1.17 2.58.08 4.64-2.16 4.6-4.74v-.2l-4.43-20.13c-.1-.4-.34-1.5-.34-2.85 0-6.53 5.31-11.85 11.85-11.85 1.56 0 3.06.3 4.49.88.37.15.55.58.37.95l-2.64 5.43c-.15.31-.51.46-.83.35-.44-.15-.91-.22-1.39-.22-2.46 0-4.46 2-4.46 4.46 0 .56.12 1.03.12 1.04l.04.16 4.43 20.16c.19.77.19 1.55.19 2.11 0 6.53-5.31 11.85-11.85 11.85M85.63 31.58c.16-.34.04-.75-.29-.92-4.96-2.66-12.81-5.73-22.59-5.73h-.55c-9.32.11-16.82 2.91-22.02 5.72-.33.18-.46.59-.29.92l2.6 5.39c.18.36.62.5.97.31 4.4-2.41 10.81-4.86 18.82-4.95h.46c8.41 0 15.14 2.69 19.32 4.97.35.19.79.04.96-.32l2.6-5.39Z"/><path d="M122.89 118.51c-.17-1.13-.74-4.12-2.33-7.52-1.43-3.04-2.88-4.69-3.93-5.89-.89-1.01-1.29-1.47-1.58-2.52-.49-1.76-.44-4.59 1.3-6.75.81-1.01 1.81-1.65 2.73-2.06.36-.16.53-.58.36-.94l-2.6-5.4a.71.71 0 0 0-.92-.33c-1.78.81-3.72 2.08-5.34 4.11-3.47 4.34-3.64 9.73-2.65 13.33.74 2.69 2.02 4.15 3.16 5.44.93 1.06 1.81 2.06 2.8 4.16 1.22 2.59 1.62 4.84 1.72 5.47.9 6.02-1.66 10.85-2.18 11.75-2.37 4.12-5.76 6.12-7.58 7.2-2.25 1.33-3.76 1.73-5.68 2.23-1.79.47-3.82 1-6.61 2.29-4.21 1.95-8.13 4.72-11.66 8.25l-.2.22a25 25 0 0 1-7.84 6.18c-1.9.96-5.87 2.58-11.07 2.69-5.2-.11-9.17-1.73-11.07-2.69a25 25 0 0 1-7.84-6.18l-.2-.22c-3.53-3.53-7.45-6.31-11.65-8.25-2.78-1.29-4.82-1.82-6.61-2.29-1.92-.5-3.43-.9-5.68-2.23-1.82-1.08-5.21-3.08-7.58-7.2-.52-.91-3.09-5.73-2.18-11.75.09-.63.5-2.88 1.72-5.47.98-2.09 1.86-3.1 2.8-4.16 1.13-1.29 2.41-2.75 3.16-5.44.99-3.6.82-9-2.65-13.33-1.55-1.94-3.39-3.19-5.11-4a.695.695 0 0 0-.93.32l-2.6 5.4c-.17.35-.01.77.34.93.86.41 1.78 1.03 2.53 1.96 1.73 2.17 1.78 4.99 1.3 6.75-.29 1.05-.7 1.51-1.58 2.52-1.06 1.2-2.5 2.85-3.93 5.89-1.6 3.4-2.17 6.39-2.34 7.52-1.24 8.24 2.05 14.74 3.09 16.54 3.34 5.8 8.16 8.65 10.22 9.87 3.14 1.86 5.39 2.45 7.57 3.02 1.64.43 3.19.84 5.38 1.85 3.37 1.56 6.53 3.79 9.41 6.65l.04.04c2.81 3.27 6.19 5.92 10.03 7.85 2.48 1.25 7.63 3.36 14.34 3.48h.14c6.71-.12 11.86-2.23 14.34-3.48 3.84-1.94 7.21-4.58 10.03-7.85.01-.01.02-.03.04-.04 2.88-2.86 6.04-5.09 9.41-6.65 2.19-1.01 3.74-1.42 5.38-1.85 2.18-.57 4.43-1.16 7.57-3.02 2.06-1.22 6.88-4.07 10.22-9.87 1.04-1.8 4.33-8.31 3.09-16.54Z"/></g><g fill="#163963"><path d="M208.25 106.6c0 7.96 3.31 11.27 10.83 11.27 3.76 0 6.63-.22 10.17-.66 0 22.54-12.15 33.15-34.47 33.15-23.87 0-36.24-14.14-36.24-36.46V52.91c0-7.29-.88-13.26-1.99-19.89l51.71-3.98v77.57Zm70.05 11.93c0 9.72 1.55 19.67 4.42 28.73L233 150.35c-1.77-8.84-3.09-18.56-3.09-27.85V52.89c0-6.63-.44-13.26-1.33-19.89l51.49-3.98c-.66 28.95-1.77 72.49-1.77 89.5ZM383.28 29.25c23.43 0 34.03 14.14 34.03 36.46v62.76c0 7.51.66 13.48 1.77 20.11h-53.26c1.1-6.63 1.55-12.6 1.55-20.11V83.39c0-8.4-2.65-12.15-10.17-12.15-2.87 0-5.52.22-8.18.44v56.79c0 6.85.22 13.48 1.11 20.11h-52.82c1.55-6.85 1.99-12.82 1.99-20.11V63.28c0-8.4-.44-18.56-3.32-28.51l50.61-5.52c1.55 7.07 1.99 14.59 2.21 22.1h.88c4.86-13.7 15.25-22.1 33.59-22.1ZM495.1 150.35c-45.3 0-66.3-20.33-66.3-58.56s22.76-62.54 65.63-62.54c10.83 0 20.55 1.33 27.62 2.87l-.44 43.09c-5.53-1.99-14.14-4.64-22.54-4.64-14.14 0-21.44 9.5-21.44 21.88 0 17.46 11.27 24.31 31.16 24.31 5.3 0 9.72-.66 12.82-1.33v30.94c-7.51 2.65-15.91 3.98-26.52 3.98Z"/></g></svg>
