<svg xmlns="http://www.w3.org/2000/svg" viewBox="0 0 800 200"><rect width="7.97" height="16.24" x="86.16" y="10.75" fill="#163963" rx=".75" ry=".75"/><rect width="12.21" height="7.97" x="98.3" y="18.41" fill="#163963" rx=".75" ry=".75" transform="rotate(-76.88 104.406 22.392)"/><rect width="7.97" height="7.97" x="112.67" y="25.13" fill="#163963" rx=".75" ry=".75" transform="rotate(-64.3 116.65 29.114)"/><rect width="7.97" height="12.21" x="71.95" y="16.3" fill="#163963" rx=".75" ry=".75" transform="rotate(-13.13 75.915 22.383)"/><rect width="7.97" height="7.97" x="59.7" y="25.14" fill="#163963" rx=".75" ry=".75" transform="rotate(-25.69 63.693 29.125)"/><path fill="#163963" d="M90.15 59.29c-18.4 0-32.82 23.22-32.82 52.84s14.41 52.85 32.82 52.85 32.8-23.22 32.8-52.85-14.41-52.84-32.8-52.84m0 7.96c11.55 0 21.58 15.15 24.18 34.83L76.07 76.75a.76.76 0 0 1-.22-1.05c.01-.02.02-.03.03-.05 4.07-5.26 9-8.4 14.27-8.4M72.09 83.68l37.17 24.61H66.22c-.42 0-.77-.34-.77-.76v-.04c.53-8.77 2.52-16.88 5.52-23.49.19-.42.72-.57 1.11-.31m18.07 73.33c-12.55 0-23.28-17.85-24.68-39.95-.03-.44.32-.81.77-.81h47.83c.44 0 .79.38.77.81-1.4 22.11-12.13 39.95-24.67 39.95m49.85-59.85c-7.04 0-12.78-5.73-12.78-12.78 0-.6 0-1.43.2-2.28l4.83-21.95s.12-.5.12-1.08a4.814 4.814 0 0 0-6.31-4.57.74.74 0 0 1-.9-.38l-2.85-5.86c-.19-.39 0-.85.4-1.02 1.53-.63 3.16-.95 4.84-.95 7.04 0 12.78 5.73 12.78 12.78 0 1.46-.26 2.64-.37 3.07l-4.78 21.74v.17c-.04 2.78 2.19 5.2 4.96 5.11.41-.01.8-.08 1.19-.18.37-.11.74.08.9.42l2.64 5.92c.18.41-.03.87-.45 1.04-1.41.53-2.91.79-4.44.79h.01Zm-99.44.02c-1.55 0-3.06-.27-4.5-.82a.74.74 0 0 1-.42-.95c0-.01.01-.03.02-.04l2.65-5.94c.15-.35.53-.52.9-.41.39.11.78.17 1.19.18 2.78.09 5-2.33 4.96-5.11v-.22L40.6 62.17c-.11-.43-.37-1.62-.37-3.07 0-7.04 5.73-12.78 12.78-12.78 1.68 0 3.3.32 4.84.95.4.16.59.63.4 1.02l-2.85 5.86c-.16.33-.55.5-.9.38-.47-.16-.98-.24-1.5-.24-2.65 0-4.81 2.16-4.81 4.81 0 .6.13 1.11.13 1.12l.04.17 4.78 21.74c.2.83.2 1.67.2 2.28 0 7.04-5.73 12.78-12.78 12.78m74.42-54.83c.17-.37.04-.81-.31-.99-5.35-2.87-13.81-6.18-24.36-6.18h-.59c-10.05.12-18.14 3.14-23.75 6.17-.36.19-.5.64-.31.99l2.8 5.81c.19.39.67.54 1.05.33 4.74-2.6 11.66-5.24 20.3-5.34h.5c9.07 0 16.33 2.9 20.83 5.36.38.2.85.04 1.04-.35l2.8-5.81h.01Z"/><path fill="#163963" d="M155.16 136.1c-.18-1.22-.8-4.44-2.51-8.11-1.54-3.28-3.11-5.06-4.24-6.35-.96-1.09-1.39-1.59-1.7-2.72-.53-1.9-.47-4.95 1.4-7.28.87-1.09 1.95-1.78 2.94-2.22.39-.17.57-.63.39-1.01l-2.8-5.82c-.18-.36-.62-.52-.99-.36-1.92.87-4.01 2.24-5.76 4.43-3.74 4.68-3.93 10.49-2.86 14.37.8 2.9 2.18 4.48 3.41 5.87 1 1.14 1.95 2.22 3.02 4.49 1.32 2.79 1.75 5.22 1.85 5.9.97 6.49-1.79 11.7-2.35 12.67-2.56 4.44-6.21 6.6-8.17 7.76-2.43 1.43-4.05 1.87-6.13 2.4-1.93.51-4.12 1.08-7.13 2.47-4.54 2.1-8.77 5.09-12.57 8.9l-.22.24a26.95 26.95 0 0 1-8.45 6.66c-2.05 1.04-6.33 2.78-11.94 2.9-5.61-.12-9.89-1.87-11.94-2.9-3.24-1.63-6.11-3.9-8.45-6.66l-.22-.24c-3.81-3.81-8.03-6.8-12.56-8.9-3-1.39-5.2-1.96-7.13-2.47-2.07-.54-3.7-.97-6.13-2.4-1.96-1.16-5.62-3.32-8.17-7.76-.56-.98-3.33-6.18-2.35-12.67.1-.68.54-3.11 1.85-5.9 1.06-2.25 2.01-3.34 3.02-4.49 1.22-1.39 2.6-2.97 3.41-5.87 1.07-3.88.88-9.71-2.86-14.37-1.67-2.09-3.66-3.44-5.51-4.31a.75.75 0 0 0-1 .34l-2.8 5.82c-.18.38-.01.83.37 1 .93.44 1.92 1.11 2.73 2.11 1.87 2.34 1.92 5.38 1.4 7.28-.31 1.13-.75 1.63-1.7 2.72-1.14 1.29-2.7 3.07-4.24 6.35-1.73 3.67-2.34 6.89-2.52 8.11-1.34 8.89 2.21 15.9 3.33 17.84 3.6 6.25 8.8 9.33 11.02 10.64 3.39 2.01 5.81 2.64 8.16 3.26 1.77.46 3.44.91 5.8 2 3.63 1.68 7.04 4.09 10.15 7.17l.04.04c3.03 3.53 6.68 6.38 10.82 8.47 2.67 1.35 8.23 3.62 15.46 3.75h.15c7.24-.13 12.79-2.4 15.46-3.75 4.14-2.09 7.78-4.94 10.82-8.47.01-.01.02-.03.04-.04 3.11-3.08 6.51-5.49 10.15-7.17 2.36-1.09 4.03-1.53 5.8-2 2.35-.61 4.78-1.25 8.16-3.26 2.22-1.32 7.42-4.39 11.02-10.64 1.12-1.94 4.67-8.96 3.33-17.84h-.11ZM247.21 123.26c0 8.58 3.57 12.15 11.68 12.15 4.05 0 7.15-.24 10.97-.71 0 24.31-13.1 35.75-37.17 35.75-25.74 0-39.08-15.25-39.08-39.32V65.36c0-7.86-.95-14.3-2.15-21.45l55.76-4.29v83.65h-.01Zm75.54 12.86c0 10.48 1.67 21.21 4.77 30.98l-53.62 3.33c-1.91-9.53-3.33-20.01-3.33-30.03V65.33c0-7.15-.47-14.3-1.43-21.45l55.53-4.29c-.71 31.22-1.91 78.17-1.91 96.52Zm113.21-96.28c25.27 0 36.7 15.25 36.7 39.32v67.68c0 8.1.71 14.54 1.91 21.69h-57.43c1.19-7.15 1.67-13.59 1.67-21.69V98.23c0-9.06-2.86-13.1-10.97-13.1-3.09 0-5.95.24-8.82.47v61.24c0 7.39.24 14.54 1.2 21.69h-56.96c1.67-7.39 2.15-13.82 2.15-21.69v-70.3c0-9.06-.47-20.01-3.58-30.74l54.58-5.95c1.67 7.62 2.15 15.73 2.38 23.83h.95c5.24-14.77 16.45-23.83 36.22-23.83h.01Zm120.58 130.59c-48.85 0-71.5-21.92-71.5-63.15s24.54-67.44 70.77-67.44c11.68 0 22.16 1.43 29.78 3.09l-.47 46.47c-5.96-2.15-15.25-5-24.31-5-15.25 0-23.12 10.24-23.12 23.59 0 18.83 12.15 26.22 33.6 26.22 5.72 0 10.48-.71 13.82-1.43v33.37c-8.1 2.86-17.16 4.29-28.6 4.29h.01Z"/><path fill="#51274f" d="M622.76 73.05V51.52c0-2.94-.22-6.1-1.1-9.48l17.63-1.69v32.7c0 2.28.07 4.48.37 6.69H622.1c.51-2.28.66-4.26.66-6.69m.08-42.17c0-4.48 3.16-6.91 8.45-6.91s8.52 2.42 8.52 6.91-3.01 6.83-8.52 6.83-8.45-2.2-8.45-6.83M675.74 40.06c3.45 0 66.46.03 87.08.03 6.26 0 9.96 7.95 9.96 12.09v20.87c0 2.5.22 4.48.59 6.69H669.93c.37-2.2.51-4.19.51-6.69V58.06c0-2.79-.88-4.04-3.38-4.04-.95 0-1.84.07-2.72.15v18.88c0 2.28.07 4.48.37 6.69h-17.56c.51-2.28.66-4.26.66-6.69V51.37c0-2.79-.15-6.17-1.1-9.48l16.83-1.84c.51 2.35.66 4.85.74 7.35h.29c1.62-4.56 5.07-7.35 11.17-7.35Z"/><path fill="#ee9e0c" d="M677.27 85.39c7.79 0 11.31 4.7 11.31 12.12v20.87c0 2.5.22 4.48.59 6.69h-17.71c.37-2.2.51-4.19.51-6.69v-14.99c0-2.79-.88-4.04-3.38-4.04-.95 0-1.84.07-2.72.15v18.88c0 2.28.07 4.48.37 6.69h-44.02c.51-2.28.66-4.26.66-6.69V96.7c0-2.79-.15-6.17-1.1-9.48l43.28-1.84c.51 2.35.66 4.85.74 7.35h.29c1.62-4.56 5.07-7.35 11.17-7.35ZM692.4 106.18c0-13.08 7.86-20.79 21.16-20.79.48 0 39.86 0 40.33.02 13.45.47 20.18 7.59 20.18 19.37 0 12.86-6.96 20.61-20.75 20.86h-39.6c-13.74 0-21.31-6.83-21.31-19.47Zm26.01.44c0-5.29-1.25-8.74-4.7-8.74-3.09 0-4.55 3.45-4.55 8.74s1.47 8.74 4.55 8.74c3.45 0 4.7-3.45 4.7-8.74"/><path fill="#e84519" d="m631.53 158.98-6.32-21.97-2.13-6.03h88.71c.29 1.76.51 3.67.81 5.29l3.82 19.69h.66l4.04-19.69c.37-1.62.59-3.53.74-5.29h14.47l-2.57 7.27-6.03 20.72c-1.1 3.82-2.06 6.76-2.94 10.8h-90.62c-.73-4.04-1.54-6.98-2.64-10.8ZM759.11 170c-.59-1.84-.96-4.26-1.18-6.54h-.22c-1.54 4.19-4.78 6.91-10.65 6.91-6.76 0-11.02-3.75-11.02-10.65 0-7.42 4.78-10.07 12.27-10.51l9.48-.59c.07-.66.07-1.18.07-1.84 0-1.98-2.13-2.5-6.91-2.5-4.11 0-7.86.44-12.12 1.32v-14.03c6.03-1.03 12.05-1.54 18.66-1.54 10.43 0 16.83 3.6 16.83 12.49 0 6.32-.88 10.8-.88 16.68 0 3.67.51 7.57 1.32 10.14zm-1.39-9.63c-.07-1.98-.07-4.26-.07-6.69l-2.64.59c-2.13.44-3.75 1.32-3.75 3.38 0 2.28 1.62 2.94 3.75 2.94.88 0 1.91-.07 2.72-.22Z"/></svg>