<svg xmlns="http://www.w3.org/2000/svg" viewBox="0 0 570 570"><path fill="#51274f" d="M35.41 230.56v-72.68c0-9.92-.75-20.59-3.72-32l59.54-5.71v110.39c0 7.69.25 15.13 1.24 22.57H33.18c1.74-7.69 2.23-14.39 2.23-22.57m.25-142.39c0-15.13 10.67-23.32 28.53-23.32s28.78 8.19 28.78 23.32-10.17 23.07-28.78 23.07-28.53-7.44-28.53-23.07M214.26 119.18c11.64 0 224.36.11 294 .11 21.13 0 33.62 26.85 33.62 40.82v70.45c0 8.43.75 15.13 1.99 22.57H194.66c1.24-7.44 1.74-14.14 1.74-22.57v-50.61c0-9.43-2.98-13.64-11.41-13.64-3.22 0-6.2.25-9.18.5v63.75c0 7.69.25 15.13 1.24 22.57h-59.29c1.74-7.69 2.23-14.39 2.23-22.57v-73.18c0-9.43-.5-20.84-3.72-32l56.8-6.2c1.74 7.94 2.23 16.37 2.48 24.81h.99c5.46-15.38 17.12-24.81 37.71-24.81Z"/><path fill="#ee9e0c" d="M219.43 272.19c26.29 0 38.2 15.88 38.2 40.93v70.45c0 8.43.75 15.13 1.99 22.57h-59.79c1.24-7.44 1.74-14.14 1.74-22.57v-50.61c0-9.43-2.98-13.64-11.41-13.64-3.22 0-6.2.25-9.18.5v63.75c0 7.69.25 15.13 1.24 22.57H33.61c1.74-7.69 2.23-14.39 2.23-22.57v-73.18c0-9.43-.5-20.84-3.72-32l146.12-6.2c1.74 7.94 2.23 16.37 2.48 24.81h.99c5.46-15.38 17.12-24.81 37.71-24.81Z"/><path fill="#ee9e0c" stroke="#fff" stroke-miterlimit="10" d="M270.52 342.39c0-44.16 26.54-70.2 71.44-70.2 1.63 0 134.56.03 136.14.08 45.41 1.57 68.12 25.61 68.12 65.41 0 43.43-23.51 69.58-70.07 70.43-.78.01-132.9.02-133.69.02-46.39 0-71.94-23.07-71.94-65.74Zm87.82 1.49c0-17.86-4.22-29.52-15.88-29.52-10.42 0-15.38 11.66-15.38 29.52s4.96 29.52 15.38 29.52c11.66 0 15.88-11.66 15.88-29.52Z"/><path fill="#e84519" d="m65.01 520.64-21.33-74.17-7.19-20.34h299.5c.99 5.95 1.73 12.4 2.73 17.86l12.9 66.48h2.23l13.64-66.48c1.24-5.46 1.98-11.91 2.48-17.86h48.87l-8.68 24.56-20.34 69.96c-3.72 12.9-6.95 22.82-9.92 36.47H73.94c-2.48-13.64-5.21-23.57-8.93-36.47ZM495.73 557.85c-1.99-6.2-3.23-14.39-3.97-22.08h-.75c-5.21 14.14-16.13 23.32-35.97 23.32-22.82 0-37.21-12.65-37.21-35.97 0-25.06 16.13-33.99 41.43-35.47l32-1.98c.25-2.23.25-3.97.25-6.2 0-6.7-7.19-8.43-23.32-8.43-13.89 0-26.54 1.49-40.93 4.46v-47.38c20.34-3.47 40.69-5.21 63.01-5.21 35.23 0 56.81 12.16 56.81 42.17 0 21.33-2.98 36.47-2.98 56.31 0 12.4 1.74 25.55 4.46 34.23l-52.84 2.23Zm-4.71-32.49c-.25-6.7-.25-14.39-.25-22.57l-8.93 1.98c-7.19 1.49-12.65 4.46-12.65 11.41 0 7.69 5.46 9.92 12.65 9.92 2.98 0 6.45-.25 9.18-.74"/><g fill="#163963"><rect width="3.7" height="7.53" x="298.77" y="14.68" rx=".35" ry=".35"/><rect width="5.66" height="3.7" x="304.4" y="18.24" rx=".35" ry=".35" transform="rotate(-76.88 307.226 20.082)"/><rect width="3.69" height="3.7" x="311.06" y="21.35" rx=".35" ry=".35" transform="rotate(-64.3 312.907 23.196)"/><rect width="3.69" height="5.66" x="292.18" y="17.26" rx=".35" ry=".35" transform="rotate(-13.13 294.04 20.105)"/><rect width="3.69" height="3.7" x="286.5" y="21.36" rx=".35" ry=".35" transform="rotate(-25.69 288.34 23.21)"/><path d="M300.62 37.19c-8.53 0-15.22 10.76-15.22 24.5s6.68 24.5 15.22 24.5 15.21-10.76 15.21-24.5-6.68-24.5-15.21-24.5m0 3.69c5.35 0 10.01 7.03 11.21 16.15l-17.74-11.75a.355.355 0 0 1-.1-.49s0-.01.01-.02c1.89-2.44 4.18-3.9 6.61-3.9m-8.37 7.63 17.24 11.41h-19.96c-.2 0-.36-.16-.36-.35v-.02c.25-4.06 1.17-7.83 2.56-10.89a.36.36 0 0 1 .51-.15m8.39 34c-5.82 0-10.8-8.28-11.44-18.53-.01-.21.15-.38.35-.38h22.18c.21 0 .37.17.35.38-.65 10.25-5.62 18.53-11.44 18.53m23.12-27.75c-3.26 0-5.92-2.66-5.92-5.93 0-.28 0-.67.1-1.06l2.24-10.17s.06-.23.06-.5a2.232 2.232 0 0 0-2.92-2.12.36.36 0 0 1-.42-.17l-1.32-2.72c-.09-.18 0-.4.19-.48.71-.29 1.47-.44 2.24-.44 3.26 0 5.92 2.66 5.92 5.92 0 .67-.12 1.23-.17 1.42l-2.22 10.08v.08c-.02 1.29 1.01 2.41 2.3 2.37.19 0 .37-.03.55-.08.17-.05.35.03.42.19l1.22 2.74c.08.19-.01.4-.21.48-.65.24-1.35.37-2.06.37Zm-46.11.01c-.72 0-1.42-.12-2.09-.38a.343.343 0 0 1-.19-.44v-.02l1.23-2.76c.07-.16.24-.24.41-.19.18.05.36.08.55.08 1.29.04 2.32-1.08 2.3-2.37v-.1l-2.22-10.06a5.928 5.928 0 0 1 8-6.9c.18.08.27.29.18.48l-1.32 2.72c-.07.16-.26.23-.41.17-.22-.08-.45-.11-.69-.11-1.23 0-2.23 1-2.23 2.23 0 .28.06.51.06.52l.02.08 2.22 10.08c.1.38.1.78.1 1.06 0 3.26-2.65 5.92-5.93 5.92m34.51-25.43c.08-.17.02-.38-.15-.46-2.48-1.33-6.4-2.86-11.3-2.86h-.27a23.7 23.7 0 0 0-11.01 2.86.35.35 0 0 0-.15.46l1.3 2.69c.09.18.31.25.49.16 2.2-1.2 5.41-2.43 9.41-2.48h.23c4.2 0 7.57 1.34 9.66 2.49.17.09.4.02.48-.16l1.3-2.69Z"/><path d="M330.76 72.8c-.08-.56-.37-2.06-1.17-3.76-.72-1.52-1.44-2.35-1.97-2.94-.44-.51-.65-.74-.79-1.26-.24-.88-.22-2.3.65-3.38.4-.51.9-.83 1.37-1.03.18-.08.26-.29.18-.47l-1.3-2.7c-.09-.17-.29-.24-.46-.17-.89.4-1.86 1.04-2.67 2.06-1.74 2.17-1.82 4.86-1.33 6.67.37 1.35 1.01 2.08 1.58 2.72.47.53.9 1.03 1.4 2.08.61 1.29.81 2.42.86 2.74.45 3.01-.83 5.43-1.09 5.88-1.19 2.06-2.88 3.06-3.79 3.6-1.12.67-1.88.86-2.84 1.11-.9.24-1.91.5-3.31 1.14-2.1.97-4.06 2.36-5.83 4.12l-.1.11a12.7 12.7 0 0 1-3.92 3.09c-.95.48-2.94 1.29-5.53 1.35-2.6-.06-4.58-.86-5.53-1.35-1.5-.76-2.83-1.81-3.92-3.09l-.1-.11c-1.76-1.76-3.73-3.15-5.83-4.12-1.39-.64-2.41-.91-3.31-1.14-.96-.25-1.72-.45-2.84-1.11-.91-.54-2.61-1.54-3.79-3.6-.26-.46-1.55-2.87-1.09-5.88.05-.31.25-1.44.86-2.74.49-1.04.93-1.55 1.4-2.08.57-.65 1.2-1.38 1.58-2.72.49-1.8.41-4.5-1.32-6.67-.78-.97-1.7-1.6-2.56-2a.347.347 0 0 0-.46.16l-1.3 2.7c-.09.17 0 .38.17.47.43.21.89.51 1.27.98.86 1.08.89 2.49.65 3.38-.14.53-.35.76-.79 1.26-.53.6-1.25 1.42-1.97 2.94-.8 1.7-1.09 3.19-1.17 3.76-.62 4.12 1.02 7.37 1.54 8.27 1.67 2.9 4.08 4.32 5.11 4.93 1.57.93 2.69 1.22 3.78 1.51.82.21 1.6.42 2.69.93 1.68.78 3.26 1.89 4.7 3.32l.02.02a16.2 16.2 0 0 0 5.01 3.93c1.24.62 3.82 1.68 7.17 1.74h.07c3.35-.06 5.93-1.11 7.17-1.74 1.92-.97 3.6-2.29 5.01-3.93 0 0 0-.01.02-.02 1.44-1.43 3.02-2.54 4.7-3.32 1.1-.5 1.87-.71 2.69-.93 1.09-.29 2.22-.58 3.78-1.51 1.03-.61 3.44-2.04 5.11-4.93.52-.9 2.17-4.15 1.54-8.27h-.05Z"/></g><path fill="#163963" d="M373.44 66.85c0 3.98 1.65 5.63 5.42 5.63 1.88 0 3.32-.11 5.08-.33 0 11.27-6.07 16.57-17.24 16.57-11.93 0-18.12-7.07-18.12-18.23V40c0-3.65-.44-6.63-1-9.94l25.85-1.99v38.78Zm35.02 5.96c0 4.86.77 9.83 2.21 14.36l-24.86 1.55c-.89-4.42-1.54-9.28-1.54-13.92V39.99c0-3.32-.22-6.63-.67-9.94l25.75-1.99c-.33 14.48-.88 36.24-.88 44.75Zm52.49-44.64c11.71 0 17.01 7.07 17.01 18.23v31.38c0 3.75.33 6.74.88 10.06h-26.63c.55-3.32.77-6.3.77-10.06V55.24c0-4.2-1.32-6.08-5.09-6.08-1.43 0-2.76.11-4.09.22v28.4c0 3.43.11 6.74.55 10.06h-26.41c.77-3.43.99-6.41.99-10.06v-32.6c0-4.2-.22-9.28-1.66-14.26l25.3-2.76c.77 3.53.99 7.3 1.1 11.05h.44c2.43-6.85 7.62-11.05 16.79-11.05Zm55.91 60.55c-22.65 0-33.15-10.17-33.15-29.28s11.38-31.27 32.82-31.27c5.41 0 10.27.66 13.81 1.43l-.22 21.55c-2.77-.99-7.07-2.32-11.27-2.32-7.07 0-10.72 4.75-10.72 10.94 0 8.73 5.63 12.15 15.58 12.15 2.65 0 4.86-.33 6.41-.67v15.47c-3.76 1.32-7.96 1.99-13.26 1.99Z"/></svg>
