<svg xmlns="http://www.w3.org/2000/svg" viewBox="0 0 550 520"><style>@keyframes show-top { to { transform: translate(-289px,0); translateZ(0); }}  @keyframes show-left { to { transform: translate(-89.5px,0);  translateZ(0); }}  @keyframes show-right { to { transform: translate(131.25px,0);  translateZ(0); }}  @keyframes show-bottom { to { transform: translate(233.75px,0);  translateZ(0); }}  .top { will-change: transform; animation: show-top 1.75s cubic-bezier(0.16, 1, 0.3, 1) forwards; transform-origin: 50% 50%; }  .left { will-change: transform; animation: show-left 1s cubic-bezier(0, 0.55, 0.45, 1) .5s forwards; transform-origin: 50% 50%; }  .right { will-change: transform; animation: show-right 1.2s cubic-bezier(0, 0.55, 0.45, 1) .5s forwards; transform-origin: 50% 50%; }  .bottom { will-change: transform; animation: show-bottom 1.5s cubic-bezier(0.25, 1, 0.5, 1) 1s forwards; transform-origin: 50% 50%; }</style><defs><mask id="in-mask"><path fill="#fff" d="M526.76 178.59v-70.45c0-13.97-12.49-40.82-33.62-40.82-1.25 0-4.08-.03-4.08-.03l-.12-58.73H16.56v192.61h512.18c-1.24-7.44-1.99-14.14-1.99-22.57Z"/></mask><mask id="n-mask"><path fill="#fff" d="M16.99 218.81h146.12v137.36H16.99z"/></mask><mask id="o-mask"><path fill="#fff" d="M531.09 357.21h-206.1v-21.53l37.18-19.5V260l-37.18-12.07v-28.25h206.1v137.53z"/></mask><mask id="va-mask"><path fill="#fff" d="m21.35 374.16 7.19 20.34 21.33 74.17c3.72 12.9 6.45 22.82 8.93 36.47h4.44v6.63h470.19V370.18H63.25v3.97h-41.9Z"/></mask></defs><g id="in" mask="url(#in-mask)"><g fill="#52274e" class="top"><path d="M309.68 178.59v-72.68c0-9.92-.75-20.59-3.72-32l59.54-5.71v110.39c0 7.69.25 15.13 1.24 22.57h-59.29c1.74-7.69 2.23-14.39 2.23-22.57ZM309.93 36.2c0-15.13 10.67-23.32 28.53-23.32s28.78 8.19 28.78 23.32-10.17 23.07-28.78 23.07-28.53-7.44-28.53-23.07ZM488.53 67.21c11.64 0 224.36.11 294 .11 21.13 0 33.62 26.85 33.62 40.82v70.45c0 8.43.75 15.13 1.99 22.57H468.93c1.24-7.44 1.74-14.14 1.74-22.57v-50.61c0-9.43-2.98-13.64-11.41-13.64-3.22 0-6.2.25-9.18.5v63.75c0 7.69.25 15.13 1.24 22.57h-59.29c1.74-7.69 2.23-14.39 2.23-22.57v-73.18c0-9.43-.5-20.84-3.72-32l56.8-6.2c1.74 7.94 2.23 16.37 2.48 24.81h.99c5.46-15.38 17.12-24.81 37.71-24.81Z"/></g></g><g id="va" mask="url(#va-mask)"><g fill="#e64725" class="bottom"><path d="m-183.89 468.67-21.33-74.17-7.19-20.34h299.5c.99 5.95 1.73 12.4 2.73 17.86l12.9 66.48h2.23l13.64-66.48c1.24-5.46 1.98-11.91 2.48-17.86h48.87l-8.68 24.56-20.34 69.96c-3.72 12.9-6.95 22.82-9.92 36.47h-305.96c-2.48-13.64-5.21-23.57-8.93-36.47ZM246.84 505.88c-1.99-6.2-3.23-14.39-3.97-22.08h-.75c-5.21 14.14-16.13 23.32-35.97 23.32-22.82 0-37.21-12.65-37.21-35.97 0-25.06 16.13-33.99 41.43-35.47l32-1.98c.25-2.23.25-3.97.25-6.2 0-6.7-7.19-8.43-23.32-8.43-13.89 0-26.54 1.49-40.93 4.46v-47.38c20.34-3.47 40.69-5.21 63.01-5.21 35.23 0 56.81 12.16 56.81 42.17 0 21.33-2.98 36.47-2.98 56.31 0 12.4 1.74 25.55 4.46 34.23l-52.84 2.23Z"/><path fill="#fff" d="M242.12 473.39c-.25-6.7-.25-14.39-.25-22.57l-8.93 1.98c-7.19 1.49-12.65 4.46-12.65 11.41 0 7.69 5.46 9.92 12.65 9.92 2.98 0 6.45-.25 9.18-.74Z"/></g></g><g id="n-slide" mask="url(#n-mask)"><path fill="#ed9e21" d="m252.43 220.22-146.12 6.2c3.23 11.16 3.72 22.57 3.72 32v73.18c0 8.19-.5 14.88-2.23 22.57h144.63V220.22Z" class="left"/></g><g id="o-slide" mask="url(#o-mask)"><path fill="#ed9e21" d="M331.64 220.3c-1.58-.05-62.44-.08-135.75-.08l.5 135.94c72.48 0 132.52 0 133.31-.02 46.56-.85 70.07-27 70.07-70.43 0-39.79-22.7-63.84-68.12-65.41Z" class="right"/></g><g id="no-static" fill="#ed9e21"><path d="M255.39 290.41c0-44.15 26.54-70.19 71.43-70.19 48.61 0 72.92 24.31 72.92 65.48 0 44.15-24.31 70.44-72.42 70.44s-71.93-23.07-71.93-65.73Z"/><path fill="#fff" d="M343.19 291.9c0-17.86-4.22-29.51-15.87-29.51-10.42 0-15.38 11.66-15.38 29.51s4.96 29.51 15.38 29.51c11.66 0 15.87-11.66 15.87-29.51Z"/><path d="M204.29 220.22c26.29 0 38.2 15.88 38.2 40.93v70.45c0 8.43.74 15.13 1.98 22.57h-59.78c1.24-7.44 1.74-14.14 1.74-22.57v-50.61c0-9.43-2.98-13.64-11.41-13.64-3.22 0-6.2.25-9.18.5v63.75c0 7.69.25 15.13 1.24 22.57h-59.29c1.74-7.69 2.23-14.39 2.23-22.57v-73.18c0-9.43-.5-20.84-3.72-32l56.81-6.2c1.74 7.94 2.23 16.37 2.48 24.81h.99c5.46-15.38 17.12-24.81 37.71-24.81Z"/></g></svg>